<svg xmlns="http://www.w3.org/2000/svg" xmlns:xlink="http://www.w3.org/1999/xlink" width="500" zoomAndPan="magnify" viewBox="0 0 375 374.999991" height="500" preserveAspectRatio="xMidYMid meet" version="1.0"><defs><g/><clipPath id="4313292243"><path d="M 28.769531 176.03125 L 346 176.03125 L 346 212.78125 L 28.769531 212.78125 Z M 28.769531 176.03125 " clip-rule="nonzero"/></clipPath></defs><g fill="#530082" fill-opacity="1"><g transform="translate(78.204102, 250.874984)"><g><path d="M 18.863281 0 L 45.1875 0 L 45.1875 -61.148438 L 109.339844 -61.148438 L 109.339844 0 L 135.667969 0 L 135.667969 -146.445312 L 109.339844 -146.445312 L 109.339844 -85.296875 L 45.1875 -85.296875 L 45.1875 -146.445312 L 18.863281 -146.445312 Z M 18.863281 0 "/></g></g><g transform="translate(232.733361, 250.874984)"><g><path d="M 18.863281 0 L 45.1875 0 L 45.1875 -146.445312 L 18.863281 -146.445312 Z M 18.863281 0 "/></g></g></g><g clip-path="url(#4313292243)"><path fill="#ffffff" d="M 28.816406 176.03125 L 345.972656 176.03125 L 345.972656 212.78125 L 28.816406 212.78125 L 28.816406 176.03125 " fill-opacity="1" fill-rule="nonzero"/></g><g fill="#530082" fill-opacity="1"><g transform="translate(150.778771, 203.382863)"><g><path d="M 4.0625 -6.90625 L 4.0625 0 L 2.046875 0 L 2.046875 -16.796875 L 8.046875 -16.796875 C 8.910156 -16.796875 9.660156 -16.671875 10.296875 -16.421875 C 10.929688 -16.179688 11.460938 -15.851562 11.890625 -15.4375 C 12.316406 -15.019531 12.632812 -14.535156 12.84375 -13.984375 C 13.0625 -13.429688 13.171875 -12.847656 13.171875 -12.234375 L 13.171875 -11.515625 C 13.171875 -10.910156 13.0625 -10.328125 12.84375 -9.765625 C 12.632812 -9.203125 12.3125 -8.707031 11.875 -8.28125 C 11.445312 -7.863281 10.910156 -7.53125 10.265625 -7.28125 C 9.628906 -7.03125 8.890625 -6.90625 8.046875 -6.90625 Z M 4.0625 -8.78125 L 7.796875 -8.78125 C 10.035156 -8.78125 11.15625 -9.738281 11.15625 -11.65625 L 11.15625 -12.09375 C 11.15625 -12.945312 10.878906 -13.628906 10.328125 -14.140625 C 9.773438 -14.660156 8.929688 -14.921875 7.796875 -14.921875 L 4.0625 -14.921875 Z M 4.0625 -8.78125 "/></g></g></g><g fill="#530082" fill-opacity="1"><g transform="translate(165.466804, 203.382863)"><g><path d="M 4.0625 -6.90625 L 4.0625 0 L 2.046875 0 L 2.046875 -16.796875 L 8.046875 -16.796875 C 8.910156 -16.796875 9.660156 -16.671875 10.296875 -16.421875 C 10.929688 -16.179688 11.460938 -15.851562 11.890625 -15.4375 C 12.316406 -15.019531 12.632812 -14.535156 12.84375 -13.984375 C 13.0625 -13.429688 13.171875 -12.847656 13.171875 -12.234375 L 13.171875 -11.515625 C 13.171875 -10.910156 13.0625 -10.328125 12.84375 -9.765625 C 12.632812 -9.203125 12.3125 -8.707031 11.875 -8.28125 C 11.445312 -7.863281 10.910156 -7.53125 10.265625 -7.28125 C 9.628906 -7.03125 8.890625 -6.90625 8.046875 -6.90625 Z M 4.0625 -8.78125 L 7.796875 -8.78125 C 10.035156 -8.78125 11.15625 -9.738281 11.15625 -11.65625 L 11.15625 -12.09375 C 11.15625 -12.945312 10.878906 -13.628906 10.328125 -14.140625 C 9.773438 -14.660156 8.929688 -14.921875 7.796875 -14.921875 L 4.0625 -14.921875 Z M 4.0625 -8.78125 "/></g></g></g><g fill="#530082" fill-opacity="1"><g transform="translate(180.154837, 203.382863)"><g><path d="M 11.140625 -1.828125 L 10.84375 -1.828125 C 10.457031 -1.109375 9.929688 -0.566406 9.265625 -0.203125 C 8.609375 0.160156 7.890625 0.34375 7.109375 0.34375 C 6.304688 0.34375 5.550781 0.207031 4.84375 -0.0625 C 4.144531 -0.34375 3.523438 -0.738281 2.984375 -1.25 C 2.453125 -1.757812 2.03125 -2.394531 1.71875 -3.15625 C 1.40625 -3.914062 1.25 -4.785156 1.25 -5.765625 L 1.25 -6.140625 C 1.25 -7.097656 1.40625 -7.957031 1.71875 -8.71875 C 2.039062 -9.476562 2.46875 -10.117188 3 -10.640625 C 3.53125 -11.160156 4.144531 -11.554688 4.84375 -11.828125 C 5.550781 -12.097656 6.289062 -12.234375 7.0625 -12.234375 C 7.925781 -12.234375 8.679688 -12.046875 9.328125 -11.671875 C 9.972656 -11.296875 10.476562 -10.75 10.84375 -10.03125 L 11.140625 -10.03125 L 11.140625 -11.90625 L 13.015625 -11.90625 L 13.015625 2.921875 C 13.015625 3.472656 12.835938 3.921875 12.484375 4.265625 C 12.140625 4.617188 11.695312 4.796875 11.15625 4.796875 L 3.40625 4.796875 L 3.40625 3.078125 L 10.484375 3.078125 C 10.921875 3.078125 11.140625 2.835938 11.140625 2.359375 Z M 7.15625 -1.4375 C 7.707031 -1.4375 8.222656 -1.539062 8.703125 -1.75 C 9.191406 -1.957031 9.613281 -2.253906 9.96875 -2.640625 C 10.332031 -3.023438 10.617188 -3.484375 10.828125 -4.015625 C 11.035156 -4.554688 11.140625 -5.15625 11.140625 -5.8125 L 11.140625 -6.09375 C 11.140625 -6.738281 11.035156 -7.328125 10.828125 -7.859375 C 10.617188 -8.390625 10.332031 -8.847656 9.96875 -9.234375 C 9.613281 -9.617188 9.191406 -9.921875 8.703125 -10.140625 C 8.210938 -10.359375 7.695312 -10.46875 7.15625 -10.46875 C 6.59375 -10.46875 6.066406 -10.363281 5.578125 -10.15625 C 5.085938 -9.945312 4.660156 -9.648438 4.296875 -9.265625 C 3.941406 -8.878906 3.664062 -8.421875 3.46875 -7.890625 C 3.269531 -7.367188 3.171875 -6.785156 3.171875 -6.140625 L 3.171875 -5.765625 C 3.171875 -5.085938 3.269531 -4.484375 3.46875 -3.953125 C 3.664062 -3.429688 3.941406 -2.984375 4.296875 -2.609375 C 4.660156 -2.234375 5.082031 -1.941406 5.5625 -1.734375 C 6.039062 -1.535156 6.570312 -1.4375 7.15625 -1.4375 Z M 7.15625 -1.4375 "/></g></g></g><g fill="#530082" fill-opacity="1"><g transform="translate(194.84287, 203.382863)"><g><path d="M 11.296875 -11.953125 C 11.296875 -12.492188 11.1875 -12.972656 10.96875 -13.390625 C 10.757812 -13.804688 10.46875 -14.148438 10.09375 -14.421875 C 9.726562 -14.691406 9.304688 -14.898438 8.828125 -15.046875 C 8.347656 -15.191406 7.84375 -15.265625 7.3125 -15.265625 C 6.851562 -15.265625 6.414062 -15.203125 6 -15.078125 C 5.582031 -14.960938 5.207031 -14.789062 4.875 -14.5625 C 4.550781 -14.34375 4.289062 -14.066406 4.09375 -13.734375 C 3.90625 -13.410156 3.8125 -13.03125 3.8125 -12.59375 L 3.8125 -12.453125 C 3.8125 -11.992188 3.90625 -11.597656 4.09375 -11.265625 C 4.289062 -10.941406 4.578125 -10.660156 4.953125 -10.421875 C 5.328125 -10.191406 5.796875 -10 6.359375 -9.84375 C 6.921875 -9.695312 7.578125 -9.566406 8.328125 -9.453125 C 10.085938 -9.179688 11.382812 -8.664062 12.21875 -7.90625 C 13.050781 -7.144531 13.46875 -6.125 13.46875 -4.84375 L 13.46875 -4.5625 C 13.46875 -3.84375 13.34375 -3.179688 13.09375 -2.578125 C 12.84375 -1.984375 12.472656 -1.46875 11.984375 -1.03125 C 11.492188 -0.601562 10.890625 -0.265625 10.171875 -0.015625 C 9.453125 0.222656 8.625 0.34375 7.6875 0.34375 C 6.613281 0.34375 5.660156 0.1875 4.828125 -0.125 C 4.003906 -0.4375 3.316406 -0.867188 2.765625 -1.421875 C 2.210938 -1.972656 1.789062 -2.617188 1.5 -3.359375 C 1.21875 -4.109375 1.078125 -4.925781 1.078125 -5.8125 L 1.078125 -6.53125 L 3.09375 -6.53125 L 3.09375 -5.953125 C 3.09375 -4.484375 3.492188 -3.378906 4.296875 -2.640625 C 5.109375 -1.898438 6.238281 -1.53125 7.6875 -1.53125 C 8.925781 -1.53125 9.863281 -1.804688 10.5 -2.359375 C 11.132812 -2.910156 11.453125 -3.644531 11.453125 -4.5625 L 11.453125 -4.703125 C 11.453125 -5.585938 11.125 -6.257812 10.46875 -6.71875 C 9.820312 -7.1875 8.769531 -7.523438 7.3125 -7.734375 C 6.46875 -7.835938 5.707031 -8.003906 5.03125 -8.234375 C 4.351562 -8.472656 3.769531 -8.78125 3.28125 -9.15625 C 2.800781 -9.53125 2.429688 -9.976562 2.171875 -10.5 C 1.921875 -11.03125 1.796875 -11.660156 1.796875 -12.390625 L 1.796875 -12.671875 C 1.796875 -13.328125 1.929688 -13.925781 2.203125 -14.46875 C 2.472656 -15.007812 2.851562 -15.476562 3.34375 -15.875 C 3.832031 -16.28125 4.414062 -16.59375 5.09375 -16.8125 C 5.78125 -17.03125 6.53125 -17.140625 7.34375 -17.140625 C 8.289062 -17.140625 9.132812 -17 9.875 -16.71875 C 10.613281 -16.445312 11.238281 -16.082031 11.75 -15.625 C 12.269531 -15.175781 12.660156 -14.644531 12.921875 -14.03125 C 13.179688 -13.414062 13.3125 -12.769531 13.3125 -12.09375 L 13.3125 -11.09375 L 11.296875 -11.09375 Z M 11.296875 -11.953125 "/></g></g></g><g fill="#530082" fill-opacity="1"><g transform="translate(209.530903, 203.382863)"><g><path d="M 2.015625 -16.796875 L 12.671875 -16.796875 L 12.671875 -14.921875 L 8.359375 -14.921875 L 8.359375 -1.875 L 12.671875 -1.875 L 12.671875 0 L 2.015625 0 L 2.015625 -1.875 L 6.34375 -1.875 L 6.34375 -14.921875 L 2.015625 -14.921875 Z M 2.015625 -16.796875 "/></g></g></g></svg>